<?xml version="1.0" encoding="UTF-8"?>
<svg width="24px" height="24px" viewBox="0 0 24 24" version="1.1" xmlns="http://www.w3.org/2000/svg">
    <title>Radio</title>
    <g stroke="none" stroke-width="1" fill="none" fill-rule="evenodd">
        <path d="M20,6 C21.1,6 22,6.9 22,8 L22,20 C22,21.1 21.1,22 20,22 L4,22 C2.9,22 2,21.1 2,20 L2,8 C2,6.9 2.9,6 4,6 L9.18,6 C9.6,5.84 10,5.67 10.29,5.46 L12,4 L20,4 L20,6 Z M7.14,13.5 C7.14,14.9 8.28,16.04 9.68,16.04 C11.08,16.04 12.22,14.9 12.22,13.5 C12.22,12.1 11.08,10.96 9.68,10.96 C8.28,10.96 7.14,12.1 7.14,13.5 Z M14.96,13.5 C14.96,14.9 16.1,16.04 17.5,16.04 C18.9,16.04 20.04,14.9 20.04,13.5 C20.04,12.1 18.9,10.96 17.5,10.96 C16.1,10.96 14.96,12.1 14.96,13.5 Z" fill="#000000"/>
    </g>
</svg>
