<?xml version="1.0" encoding="UTF-8"?>
<svg width="24px" height="24px" viewBox="0 0 24 24" version="1.1" xmlns="http://www.w3.org/2000/svg">
    <title>Rocket</title>
    <g stroke="none" stroke-width="1" fill="none" fill-rule="evenodd">
        <path d="M12,2.5 C12,2.5 7,3.5 7,9.5 C7,12.5 9,16.5 9,16.5 L15,16.5 C15,16.5 17,12.5 17,9.5 C17,3.5 12,2.5 12,2.5 Z M12,5.5 C13.1,5.5 14,6.4 14,7.5 C14,8.6 13.1,9.5 12,9.5 C10.9,9.5 10,8.6 10,7.5 C10,6.4 10.9,5.5 12,5.5 Z M7,18.5 C7,18.5 7,20.5 9,20.5 L15,20.5 C17,20.5 17,18.5 17,18.5 L7,18.5 Z" fill="#000000"/>
    </g>
</svg>
