<svg width="40" height="40" viewBox="0 0 40 40" xmlns="http://www.w3.org/2000/svg">
  <defs>
    <!-- Glowing gradient -->
    <radialGradient id="iconGlow" cx="50%" cy="50%" r="50%">
      <stop offset="0%" style="stop-color:#00ffff;stop-opacity:0.8" />
      <stop offset="50%" style="stop-color:#0080ff;stop-opacity:0.4" />
      <stop offset="100%" style="stop-color:#0000ff;stop-opacity:0.1" />
    </radialGradient>
    
    <!-- Neon gradient -->
    <linearGradient id="iconNeon" x1="0%" y1="0%" x2="100%" y2="0%">
      <stop offset="0%" style="stop-color:#00ffff;stop-opacity:1" />
      <stop offset="50%" style="stop-color:#8000ff;stop-opacity:1" />
      <stop offset="100%" style="stop-color:#ff0080;stop-opacity:1" />
    </linearGradient>
    
    <!-- Glow filter -->
    <filter id="iconGlowFilter">
      <feGaussianBlur stdDeviation="2" result="coloredBlur"/>
      <feMerge> 
        <feMergeNode in="coloredBlur"/>
        <feMergeNode in="SourceGraphic"/>
      </feMerge>
    </filter>
  </defs>
  
  <!-- Background circle -->
  <circle cx="20" cy="20" r="18" fill="url(#iconGlow)" opacity="0.3" filter="url(#iconGlowFilter)"/>
  
  <!-- Main hexagon -->
  <polygon points="20,8 28,14 28,26 20,32 12,26 12,14" 
           fill="none" 
           stroke="url(#iconNeon)" 
           stroke-width="2" 
           filter="url(#iconGlowFilter)"/>
  
  <!-- Inner hexagon -->
  <polygon points="20,12 25,15 25,25 20,28 15,25 15,15" 
           fill="url(#iconNeon)" 
           opacity="0.3"/>
  
  <!-- Center node -->
  <circle cx="20" cy="20" r="3" fill="#00ffff" filter="url(#iconGlowFilter)"/>
  
  <!-- Corner nodes -->
  <circle cx="15" cy="15" r="1.5" fill="#ff0080" filter="url(#iconGlowFilter)"/>
  <circle cx="25" cy="15" r="1.5" fill="#ff0080" filter="url(#iconGlowFilter)"/>
  <circle cx="15" cy="25" r="1.5" fill="#ff0080" filter="url(#iconGlowFilter)"/>
  <circle cx="25" cy="25" r="1.5" fill="#ff0080" filter="url(#iconGlowFilter)"/>
  
  <!-- Connection lines -->
  <line x1="20" y1="20" x2="15" y2="15" stroke="#00ffff" stroke-width="1" opacity="0.6" filter="url(#iconGlowFilter)"/>
  <line x1="20" y1="20" x2="25" y2="15" stroke="#00ffff" stroke-width="1" opacity="0.6" filter="url(#iconGlowFilter)"/>
  <line x1="20" y1="20" x2="15" y2="25" stroke="#00ffff" stroke-width="1" opacity="0.6" filter="url(#iconGlowFilter)"/>
  <line x1="20" y1="20" x2="25" y2="25" stroke="#00ffff" stroke-width="1" opacity="0.6" filter="url(#iconGlowFilter)"/>
</svg>
