<?xml version="1.0" encoding="UTF-8"?>
<svg width="24px" height="24px" viewBox="0 0 24 24" version="1.1" xmlns="http://www.w3.org/2000/svg">
    <title>Xat</title>
    <g stroke="none" stroke-width="1" fill="none" fill-rule="evenodd">
        <path d="M12,2 C6.48,2 2,6.48 2,12 C2,17.52 6.48,22 12,22 C17.52,22 22,17.52 22,12 C22,6.48 17.52,2 12,2 Z M12,20 C7.59,20 4,16.41 4,12 C4,7.59 7.59,4 12,4 C16.41,4 20,7.59 20,12 C20,16.41 16.41,20 12,20 Z M10,9.5 C10,10.3 9.3,11 8.5,11 C7.7,11 7,10.3 7,9.5 C7,8.7 7.7,8 8.5,8 C9.3,8 10,8.7 10,9.5 Z M17,9.5 C17,10.3 16.3,11 15.5,11 C14.7,11 14,10.3 14,9.5 C14,8.7 14.7,8 15.5,8 C16.3,8 17,8.7 17,9.5 Z M12,17.5 C9.67,17.5 7.69,16.04 6.89,14 L17.11,14 C16.31,16.04 14.33,17.5 12,17.5 Z" fill="#000000"/>
    </g>
</svg>
